<svg width="70" height="73" viewBox="0 0 70 73" fill="none" xmlns="http://www.w3.org/2000/svg">
<g filter="url(#filter0_i)">
<ellipse cx="34.976" cy="35.3093" rx="24.8437" ry="25.8733" transform="rotate(-180 34.976 35.3093)" stroke="#F1F1F1" stroke-width="4"/>
<path d="M35.507 9.75195L57.3722 47.6236L13.6418 47.6236L35.507 9.75195Z" stroke="#F1F1F1" stroke-width="4"/>
<circle cx="13.9596" cy="47.6605" r="7.40245" transform="rotate(-180 13.9596 47.6605)" fill="white" stroke="#F1F1F1" stroke-width="4"/>
<circle cx="35.3634" cy="10.4098" r="7.40245" transform="rotate(-180 35.3634 10.4098)" fill="white" stroke="#F1F1F1" stroke-width="4"/>
<circle cx="56.9629" cy="47.6605" r="7.40245" transform="rotate(-180 56.9629 47.6605)" fill="white" stroke="#F1F1F1" stroke-width="4"/>
<path d="M57.3761 22.6203L35.5109 60.492L13.6457 22.6203L57.3761 22.6203Z" stroke="#F1F1F1" stroke-width="4"/>
<circle cx="13.7726" cy="22.914" r="7.40245" transform="rotate(-120 13.7726 22.914)" fill="white" stroke="#F1F1F1" stroke-width="4"/>
<circle cx="56.7345" cy="22.8248" r="7.40245" transform="rotate(-120 56.7345 22.8248)" fill="white" stroke="#F1F1F1" stroke-width="4"/>
<circle cx="35.2743" cy="60.156" r="7.40245" transform="rotate(-120 35.2743 60.156)" fill="white" stroke="#F1F1F1" stroke-width="4"/>
</g>
<defs>
<filter id="filter0_i" x="0.928589" y="1.00732" width="69.6499" height="75.9927" filterUnits="userSpaceOnUse" color-interpolation-filters="sRGB">
<feFlood flood-opacity="0" result="BackgroundImageFix"/>
<feBlend mode="normal" in="SourceGraphic" in2="BackgroundImageFix" result="shape"/>
<feColorMatrix in="SourceAlpha" type="matrix" values="0 0 0 0 0 0 0 0 0 0 0 0 0 0 0 0 0 0 127 0" result="hardAlpha"/>
<feOffset dx="1" dy="4"/>
<feGaussianBlur stdDeviation="2"/>
<feComposite in2="hardAlpha" operator="arithmetic" k2="-1" k3="1"/>
<feColorMatrix type="matrix" values="0 0 0 0 0 0 0 0 0 0 0 0 0 0 0 0 0 0 0.08 0"/>
<feBlend mode="normal" in2="shape" result="effect1_innerShadow"/>
</filter>
</defs>
</svg>
