<svg width="31" height="32" viewBox="0 0 31 32" fill="none" xmlns="http://www.w3.org/2000/svg">
<g filter="url(#filter0_i)">
<rect x="5.54153" y="5.93848" width="20.2267" height="20.108" stroke="#F1F1F1" stroke-width="2"/>
<ellipse cx="15.6553" cy="15.9926" rx="14.2068" ry="14.1235" stroke="#F1F1F1" stroke-width="2"/>
<path d="M29.7508 5.78763C29.7508 7.87393 28.0479 9.57525 25.9349 9.57525C23.8219 9.57525 22.119 7.87393 22.119 5.78763C22.119 3.70132 23.8219 2 25.9349 2C28.0479 2 29.7508 3.70132 29.7508 5.78763Z" fill="white" stroke="#F1F1F1" stroke-width="2"/>
<path d="M9.20552 26.2125C9.20552 28.2988 7.50265 30.0001 5.38964 30.0001C3.27663 30.0001 1.57376 28.2988 1.57376 26.2125C1.57376 24.1262 3.27663 22.4249 5.38964 22.4249C7.50265 22.4249 9.20552 24.1262 9.20552 26.2125Z" fill="white" stroke="#F1F1F1" stroke-width="2"/>
<path d="M29.7508 26.2124C29.7508 28.2987 28.0479 30.0001 25.9349 30.0001C23.8219 30.0001 22.119 28.2987 22.119 26.2124C22.119 24.1261 23.8219 22.4248 25.9349 22.4248C28.0479 22.4248 29.7508 24.1261 29.7508 26.2124Z" fill="white" stroke="#F1F1F1" stroke-width="2"/>
<path d="M9.20552 5.78763C9.20552 7.87393 7.50265 9.57525 5.38964 9.57525C3.27663 9.57525 1.57376 7.87393 1.57376 5.78763C1.57376 3.70132 3.27663 2 5.38964 2C7.50265 2 9.20552 3.70132 9.20552 5.78763Z" fill="white" stroke="#F1F1F1" stroke-width="2"/>
</g>
<defs>
<filter id="filter0_i" x="0.448425" y="0.869141" width="31.4137" height="34.247" filterUnits="userSpaceOnUse" color-interpolation-filters="sRGB">
<feFlood flood-opacity="0" result="BackgroundImageFix"/>
<feBlend mode="normal" in="SourceGraphic" in2="BackgroundImageFix" result="shape"/>
<feColorMatrix in="SourceAlpha" type="matrix" values="0 0 0 0 0 0 0 0 0 0 0 0 0 0 0 0 0 0 127 0" result="hardAlpha"/>
<feOffset dx="1" dy="4"/>
<feGaussianBlur stdDeviation="2"/>
<feComposite in2="hardAlpha" operator="arithmetic" k2="-1" k3="1"/>
<feColorMatrix type="matrix" values="0 0 0 0 0 0 0 0 0 0 0 0 0 0 0 0 0 0 0.08 0"/>
<feBlend mode="normal" in2="shape" result="effect1_innerShadow"/>
</filter>
</defs>
</svg>
